<svg width="40" height="41" viewBox="0 0 40 41" fill="none" xmlns="http://www.w3.org/2000/svg">
<g clip-path="url(#clip0_96_1526)">
<path d="M37.6777 21.0352L34.1999 9.578C34.0599 9.1131 33.7783 8.70638 33.3964 8.41741C33.0145 8.12844 32.5524 7.97241 32.0777 7.97217H7.92217C7.44749 7.97241 6.98535 8.12844 6.60346 8.41741C6.22156 8.70638 5.93998 9.1131 5.79995 9.578L2.32217 21.0466C2.25623 21.2642 2.22253 21.4907 2.22217 21.7186V30.7499C2.22217 31.354 2.45629 31.9334 2.87304 32.3606C3.28979 32.7877 3.85502 33.0277 4.44439 33.0277H35.5555C36.1449 33.0277 36.7101 32.7877 37.1269 32.3606C37.5436 31.9334 37.7777 31.354 37.7777 30.7499V21.7072C37.7774 21.4793 37.7437 21.2528 37.6777 21.0352ZM9.91106 28.4722H7.91106V25.0555H9.91106V28.4722ZM15.4666 28.4722H13.4666V25.0555H15.4666V28.4722ZM21.0222 28.4722H19.0222V25.0555H21.0222V28.4722ZM26.5777 28.4722H24.5555V25.0555H26.5555L26.5777 28.4722ZM32.1333 28.4722H30.1111V25.0555H32.1111L32.1333 28.4722ZM34.4444 22.0944H5.5555V20.4999H34.4444V22.0944Z" fill="#00222B"/>
</g>
<defs>
<clipPath id="clip0_96_1526">
<rect width="40" height="41" fill="white"/>
</clipPath>
</defs>
</svg>
