<svg width="60" height="60" viewBox="0 0 60 60" fill="none" xmlns="http://www.w3.org/2000/svg">
<path d="M17 12.9999V8.3479" stroke="white" stroke-width="2" stroke-miterlimit="10"/>
<path d="M21 10C18.281 10 16 8.437 16 5.354C16 4 17 3 17 3C17 3 19 5 22 5H23.416C26.5 5 29 7.5 29 10.583V15C29 18.313 26.313 21 23 21C19.686 21 17 18.313 17 15V12" stroke="white" stroke-width="2" stroke-miterlimit="10"/>
<path d="M26 24C26 24 25 26 23 26C21 26 20 24 20 24" stroke="white" stroke-width="2" stroke-miterlimit="10"/>
<path d="M20 20.197V24L12.549 26.98C10.932 27.626 9.683 28.952 9.133 30.603L4.71 43.869C4.24 45.28 4 46.759 4 48.246C4 50.319 5.681 52 7.754 52C7.918 52 8.082 51.989 8.244 51.968L23.478 49.962C24.916 49.772 26 48.495 26 47C26 45.343 24.656 44 23 44C22.919 44 22.837 44.003 22.758 44.01L10.217 45.012" stroke="white" stroke-width="2" stroke-miterlimit="10"/>
<path d="M26 20.197V24L33.452 26.98C34.864 27.545 35.996 28.628 36.627 29.996" stroke="white" stroke-width="2" stroke-miterlimit="10"/>
<path d="M15.4161 37.25L12.8501 44.801" stroke="white" stroke-width="2" stroke-miterlimit="10"/>
<path d="M25.832 48H56V51C56 52.657 54.656 54 53 54H22C20.343 54 19 52.657 19 51V50.552" stroke="white" stroke-width="2" stroke-miterlimit="10"/>
<path d="M21 44.15V33C21 31.343 22.343 30 24 30H51C52.656 30 54 31.343 54 33V48" stroke="white" stroke-width="2" stroke-miterlimit="10"/>
<path d="M52 51V54" stroke="white" stroke-width="2" stroke-miterlimit="10"/>
<path d="M48 51V54" stroke="white" stroke-width="2" stroke-miterlimit="10"/>
<path d="M44 51V54" stroke="white" stroke-width="2" stroke-miterlimit="10"/>
<path d="M48 58H46" stroke="white" stroke-width="2" stroke-miterlimit="10"/>
<path d="M44 58H25" stroke="white" stroke-width="2" stroke-miterlimit="10"/>
<path d="M45 44C47.7614 44 50 41.7614 50 39C50 36.2386 47.7614 34 45 34C42.2386 34 40 36.2386 40 39C40 41.7614 42.2386 44 45 44Z" stroke="white" stroke-width="2" stroke-miterlimit="10"/>
<path d="M50 39H45V34" stroke="white" stroke-width="2" stroke-miterlimit="10"/>
<path d="M45.0001 39L41.4651 42.535" stroke="white" stroke-width="2" stroke-miterlimit="10"/>
<path d="M24 34H32" stroke="white" stroke-width="2" stroke-miterlimit="10"/>
<path d="M34 34H36" stroke="white" stroke-width="2" stroke-miterlimit="10"/>
<path d="M24 38H36" stroke="white" stroke-width="2" stroke-miterlimit="10"/>
<path d="M51 18H53C54.104 18 55 17.104 55 16V7C55 5.896 54.104 5 53 5H36C34.896 5 34 5.896 34 7V20.528C34 20.907 34.424 21.131 34.736 20.917L38.995 18H45" stroke="white" stroke-width="2" stroke-miterlimit="10"/>
<path d="M37 9H45" stroke="white" stroke-width="2" stroke-miterlimit="10"/>
<path d="M47 9H49" stroke="white" stroke-width="2" stroke-miterlimit="10"/>
<path d="M37 13H52" stroke="white" stroke-width="2" stroke-miterlimit="10"/>
<path d="M47 18H49" stroke="white" stroke-width="2" stroke-miterlimit="10"/>
<path d="M2 23H7" stroke="white" stroke-width="2" stroke-miterlimit="10"/>
<path d="M3.40405 15.3379L7.88105 16.5369" stroke="white" stroke-width="2" stroke-miterlimit="10"/>
<path d="M6.98608 8.55908L10.8281 10.7761" stroke="white" stroke-width="2" stroke-miterlimit="10"/>
</svg>
