<svg width="47" height="42" viewBox="0 0 47 42" fill="none" xmlns="http://www.w3.org/2000/svg">
<path d="M9.79167 36.75C8.71458 36.75 7.79221 36.4076 7.02454 35.7228C6.25818 35.0368 5.875 34.2125 5.875 33.25V26.25C5.875 25.2875 6.25818 24.4632 7.02454 23.7773C7.79221 23.0924 8.71458 22.75 9.79167 22.75H29.375V15.75H33.2917V22.75H37.2083C38.2854 22.75 39.2078 23.0924 39.9755 23.7773C40.7418 24.4632 41.125 25.2875 41.125 26.25V33.25C41.125 34.2125 40.7418 35.0368 39.9755 35.7228C39.2078 36.4076 38.2854 36.75 37.2083 36.75H9.79167ZM15.6667 29.75C15.6667 29.2542 15.4793 28.8388 15.1046 28.504C14.7286 28.168 14.2632 28 13.7083 28C13.1535 28 12.688 28.168 12.312 28.504C11.9373 28.8388 11.75 29.2542 11.75 29.75C11.75 30.2458 11.9373 30.6612 12.312 30.996C12.688 31.332 13.1535 31.5 13.7083 31.5C14.2632 31.5 14.7286 31.332 15.1046 30.996C15.4793 30.6612 15.6667 30.2458 15.6667 29.75ZM22.5208 29.75C22.5208 29.2542 22.3335 28.8388 21.9588 28.504C21.5828 28.168 21.1174 28 20.5625 28C20.0076 28 19.5429 28.168 19.1682 28.504C18.7922 28.8388 18.6042 29.2542 18.6042 29.75C18.6042 30.2458 18.7922 30.6612 19.1682 30.996C19.5429 31.332 20.0076 31.5 20.5625 31.5C21.1174 31.5 21.5828 31.332 21.9588 30.996C22.3335 30.6612 22.5208 30.2458 22.5208 29.75ZM27.4167 31.5C27.9715 31.5 28.437 31.332 28.813 30.996C29.1877 30.6612 29.375 30.2458 29.375 29.75C29.375 29.2542 29.1877 28.8388 28.813 28.504C28.437 28.168 27.9715 28 27.4167 28C26.8618 28 26.397 28.168 26.0223 28.504C25.6463 28.8388 25.4583 29.2542 25.4583 29.75C25.4583 30.2458 25.6463 30.6612 26.0223 30.996C26.397 31.332 26.8618 31.5 27.4167 31.5ZM27.9062 14.4375L25.0667 11.9C25.9153 11.2 26.8618 10.6458 27.9062 10.2375C28.9507 9.82917 30.0931 9.625 31.3333 9.625C32.5736 9.625 33.716 9.82917 34.7604 10.2375C35.8049 10.6458 36.7514 11.2 37.6 11.9L34.7604 14.4375C34.3035 14.0292 33.7897 13.7083 33.2192 13.475C32.6474 13.2417 32.0187 13.125 31.3333 13.125C30.6479 13.125 30.0199 13.2417 29.4494 13.475C28.8776 13.7083 28.3632 14.0292 27.9062 14.4375ZM23.0104 10.0625L20.2688 7.6125C21.7049 6.32917 23.3694 5.32292 25.2625 4.59375C27.1556 3.86458 29.1792 3.5 31.3333 3.5C33.4875 3.5 35.5111 3.86458 37.4042 4.59375C39.2972 5.32292 40.9618 6.32917 42.3979 7.6125L39.6562 10.0625C38.5792 9.1 37.3304 8.34925 35.91 7.81025C34.4908 7.27008 32.9653 7 31.3333 7C29.7014 7 28.1758 7.27008 26.7567 7.81025C25.3363 8.34925 24.0875 9.1 23.0104 10.0625Z" fill="black"/>
</svg>
