<svg width="35" height="35" viewBox="0 0 35 35" fill="none" xmlns="http://www.w3.org/2000/svg">
<path d="M17.5 0C14.0388 0 10.6554 1.02636 7.77753 2.94928C4.89967 4.87221 2.65665 7.60533 1.33212 10.803C0.00758242 14.0007 -0.338976 17.5194 0.336265 20.9141C1.01151 24.3087 2.67822 27.4269 5.12564 29.8744C7.57306 32.3218 10.6913 33.9885 14.0859 34.6637C17.4806 35.339 20.9993 34.9924 24.197 33.6679C27.3947 32.3433 30.1278 30.1003 32.0507 27.2225C33.9736 24.3446 35 20.9612 35 17.5C35 12.8587 33.1563 8.40752 29.8744 5.12563C26.5925 1.84374 22.1413 0 17.5 0ZM12.9719 9.02344C13.1359 8.8598 13.3582 8.7679 13.5898 8.7679C13.8215 8.7679 14.0438 8.8598 14.2078 9.02344L16.625 11.4187V4.65937C16.625 4.42731 16.7172 4.20475 16.8813 4.04066C17.0454 3.87656 17.2679 3.78437 17.5 3.78437C17.7321 3.78437 17.9546 3.87656 18.1187 4.04066C18.2828 4.20475 18.375 4.42731 18.375 4.65937V11.4187L20.7813 9.02344C20.8631 8.94228 20.9602 8.87805 21.0669 8.8344C21.1736 8.79076 21.2878 8.76856 21.4031 8.76907C21.5184 8.76957 21.6324 8.79278 21.7387 8.83737C21.845 8.88195 21.9415 8.94703 22.0227 9.0289C22.1038 9.11077 22.168 9.20783 22.2117 9.31452C22.2553 9.42122 22.2775 9.53547 22.277 9.65074C22.2765 9.76602 22.2533 9.88006 22.2087 9.98637C22.1641 10.0927 22.0991 10.1892 22.0172 10.2703L17.5 14.7437L12.9719 10.2594C12.8082 10.0953 12.7163 9.8731 12.7163 9.6414C12.7163 9.40971 12.8082 9.18747 12.9719 9.02344ZM9.10001 21.9516C8.93597 22.1152 8.71373 22.2071 8.48204 22.2071C8.25034 22.2071 8.0281 22.1152 7.86407 21.9516L3.28126 17.5L7.86407 13.0266C7.94446 12.9395 8.04169 12.8697 8.14986 12.8214C8.25803 12.7731 8.37488 12.7472 8.49334 12.7454C8.6118 12.7436 8.7294 12.7658 8.839 12.8108C8.9486 12.8558 9.04793 12.9226 9.13096 13.0071C9.21398 13.0916 9.27899 13.1921 9.32202 13.3025C9.36506 13.4129 9.38523 13.5308 9.38131 13.6492C9.37739 13.7676 9.34947 13.884 9.29924 13.9913C9.249 14.0986 9.1775 14.1946 9.08907 14.2734L6.68282 16.6141H13.5406C13.7727 16.6141 13.9953 16.7062 14.1593 16.8703C14.3234 17.0344 14.4156 17.257 14.4156 17.4891C14.4156 17.7211 14.3234 17.9437 14.1593 18.1078C13.9953 18.2719 13.7727 18.3641 13.5406 18.3641H6.68282L9.08907 20.7156C9.25417 20.8782 9.34803 21.0996 9.35008 21.3313C9.35213 21.563 9.2622 21.7861 9.10001 21.9516ZM22.0281 25.9656C21.8641 26.1293 21.6419 26.2212 21.4102 26.2212C21.1785 26.2212 20.9562 26.1293 20.7922 25.9656L18.375 23.5812V30.3297C18.375 30.5617 18.2828 30.7843 18.1187 30.9484C17.9546 31.1125 17.7321 31.2047 17.5 31.2047C17.2679 31.2047 17.0454 31.1125 16.8813 30.9484C16.7172 30.7843 16.625 30.5617 16.625 30.3297V23.5812L14.2188 25.9766C14.0534 26.1405 13.8297 26.232 13.5969 26.2309C13.3641 26.2299 13.1412 26.1364 12.9773 25.9711C12.8135 25.8057 12.722 25.5821 12.723 25.3493C12.724 25.1164 12.8175 24.8936 12.9828 24.7297L17.5 20.2453L22.0281 24.7297C22.1918 24.8937 22.2837 25.116 22.2837 25.3477C22.2837 25.5793 22.1918 25.8016 22.0281 25.9656ZM27.1359 21.9625C27.0555 22.0495 26.9583 22.1193 26.8502 22.1676C26.742 22.216 26.6251 22.2418 26.5067 22.2436C26.3882 22.2455 26.2706 22.2232 26.161 22.1782C26.0514 22.1332 25.9521 22.0665 25.8691 21.982C25.786 21.8975 25.721 21.797 25.678 21.6866C25.635 21.5762 25.6148 21.4582 25.6187 21.3398C25.6226 21.2214 25.6505 21.105 25.7008 20.9977C25.751 20.8904 25.8225 20.7945 25.9109 20.7156L28.3172 18.3641H21.4703C21.2383 18.3641 21.0157 18.2719 20.8516 18.1078C20.6875 17.9437 20.5953 17.7211 20.5953 17.4891C20.5953 17.257 20.6875 17.0344 20.8516 16.8703C21.0157 16.7062 21.2383 16.6141 21.4703 16.6141H28.3281L25.9219 14.2734C25.8334 14.1946 25.7619 14.0986 25.7117 13.9913C25.6615 13.884 25.6336 13.7676 25.6296 13.6492C25.6257 13.5308 25.6459 13.4129 25.6889 13.3025C25.732 13.1921 25.797 13.0916 25.88 13.0071C25.963 12.9226 26.0623 12.8558 26.1719 12.8108C26.2816 12.7658 26.3991 12.7436 26.5176 12.7454C26.6361 12.7472 26.7529 12.7731 26.8611 12.8214C26.9693 12.8697 27.0665 12.9395 27.1469 13.0266L31.7188 17.5L27.1359 21.9625Z" fill="#00222B"/>
</svg>
